<svg id="Layer_1" enable-background="new 0 0 511.896 511.896" height="512" viewBox="0 0 511.896 511.896" width="512" xmlns="http://www.w3.org/2000/svg"><g><g clip-rule="evenodd" fill-rule="evenodd"><path d="m267.536 59.153c-6.802-4.065-15.548-4.418-22.89-.165l-35.96 20.837-41.46-.066v.006c-7.787.008-15.356 4.06-19.514 11.297l-20.687 35.963-35.321 20.318c-7.105 3.786-11.943 11.27-11.943 19.883l.065 41.462-20.673 35.672c-4.065 6.802-4.418 15.548-.165 22.89l20.837 35.96-.066 41.46h.006c.007 7.787 4.06 15.356 11.297 19.514l35.963 20.688 20.318 35.321c3.786 7.106 11.269 11.943 19.883 11.943l41.462-.065 35.672 20.671c6.802 4.065 15.548 4.418 22.89.166l35.96-20.837 41.46.065v-.005c7.787-.008 15.356-4.06 19.514-11.297l20.688-35.962 35.321-20.318c7.106-3.786 11.943-11.269 11.943-19.883l-.065-41.462 20.671-35.673c4.065-6.802 4.418-15.547.166-22.89l-20.837-35.96.066-41.46h-.005c-.008-7.787-4.06-15.356-11.297-19.515l-35.963-20.687-20.318-35.321c-3.786-7.106-11.269-11.943-19.883-11.943l-41.462.065zm-151.588 196.795c0-77.32 62.68-140 140-140 185.707 7.374 185.654 272.654-.001 280-77.318 0-139.999-62.68-139.999-140z" fill="#dc72a9"/><path d="m255.948 115.948c-77.32 0-140 62.68-140 140 7.374 185.707 272.654 185.654 280-.001.001-77.319-62.68-139.999-140-139.999zm-100 140c0-55.229 44.771-100 100-100 132.648 5.267 132.61 194.753-.001 200-55.227 0-99.999-44.771-99.999-100z" fill="#ffee80"/><path d="m255.948 155.948c-55.229 0-100 44.772-100 100 5.267 132.648 194.753 132.61 200-.001.001-55.227-44.771-99.999-100-99.999z" fill="#ffc144"/></g><g><path d="m255.948 105.948c-23.512 0-46.039 5.299-66.957 15.75-4.94 2.468-6.944 8.474-4.476 13.415 2.467 4.94 8.471 6.942 13.415 4.476 84.509-43.526 189.194 21.196 188.017 116.361.001 71.681-58.316 129.998-129.999 129.998-95.154 1.169-159.894-103.505-116.362-188.011 2.469-4.94.465-10.946-4.476-13.415-4.942-2.473-10.947-.464-13.415 4.476-50.237 97.521 24.447 218.302 134.255 216.949 198.984-8.233 198.944-291.786-.002-299.999z"/><path d="m243.847 320.694c7.037 0 14.12-1.584 20.484-4.581 4.996-2.353 7.14-8.311 4.786-13.308-2.354-4.996-8.308-7.141-13.308-4.786-18.142 8.892-40.365-5.184-40.047-25.409 0-11.964 7.521-22.206 18.084-26.244v26.244c0 5.522 4.478 10 10 10h29.605l13.649 28.744c2.368 4.989 8.332 7.113 13.322 4.744 4.989-2.369 7.113-8.334 4.744-13.322l-16.36-34.455c-1.656-3.488-5.172-5.711-9.033-5.711h-25.928v-18.084h21.976c13.268-.529 13.258-19.476 0-20h-31.976c-63.803 2.65-63.755 93.543.002 96.168z"/><path d="m243.853 216.202c19.902-.793 19.887-29.215 0-30h-.007c-19.901.794-19.879 29.217.007 30z"/><path d="m255.948 365.948c60.654 0 110-49.346 110-110-6.042-145.93-213.98-145.888-220 .001 0 60.653 49.346 109.999 110 109.999zm0-200c49.626 0 90 40.374 90 90-4.944 119.397-175.074 119.362-180-.001 0-49.625 40.374-89.999 90-89.999z"/><path d="m186.761 36.373c3.98 12.719 22.254 7.713 19.318-5.178l-4.142-15.455c-1.43-5.334-6.909-8.502-12.248-7.07-5.334 1.43-8.5 6.913-7.07 12.248z"/><path d="m86.242 100.384c3.906 3.905 10.237 3.905 14.143 0 3.905-3.905 3.905-10.237 0-14.143l-11.314-11.313c-3.906-3.904-10.236-3.904-14.143 0-3.905 3.905-3.905 10.237 0 14.143z"/><path d="m15.741 201.937 15.454 4.142c12.891 2.939 17.894-15.341 5.178-19.318l-15.454-4.142c-5.337-1.429-10.818 1.737-12.248 7.07-1.43 5.335 1.736 10.819 7.07 12.248z"/><path d="m43.443 312.888c-1.43-5.335-6.911-8.498-12.248-7.07l-15.454 4.142c-12.724 3.984-7.703 22.259 5.178 19.318l15.454-4.142c5.334-1.43 8.5-6.913 7.07-12.248z"/><path d="m86.242 411.513-11.313 11.313c-3.905 3.905-3.905 10.237 0 14.143 3.906 3.905 10.237 3.905 14.143 0l11.313-11.313c3.905-3.905 3.905-10.237 0-14.143-3.907-3.905-10.237-3.905-14.143 0z"/><path d="m199.009 468.453c-5.339-1.428-10.818 1.737-12.248 7.07l-4.142 15.455c-2.933 12.903 15.345 17.887 19.318 5.178l4.142-15.455c1.43-5.335-1.736-10.818-7.07-12.248z"/><path d="m325.137 475.524c-1.429-5.334-6.909-8.5-12.247-7.071-5.335 1.429-8.501 6.912-7.071 12.247l4.141 15.455c1.41 5.378 7.056 8.508 12.247 7.071 5.335-1.429 8.501-6.912 7.071-12.247z"/><path d="m425.655 411.513c-3.906-3.904-10.236-3.904-14.143 0-3.905 3.905-3.905 10.237 0 14.143l11.313 11.313c3.906 3.905 10.237 3.905 14.143 0 3.905-3.905 3.905-10.237 0-14.143z"/><path d="m496.156 309.959-15.455-4.142c-5.336-1.427-10.818 1.738-12.248 7.07-1.43 5.335 1.736 10.818 7.07 12.248l15.455 4.142c5.191 1.436 10.837-1.693 12.248-7.07 1.43-5.335-1.736-10.818-7.07-12.248z"/><path d="m501.949 245.948h-37.579c-.701-2.175-1.637-4.293-2.809-6.316l-19.486-33.627.062-38.764c0-.134-.002-.268-.008-.401-.027-2.178-.275-4.327-.726-6.417l32.589-18.814c4.783-2.761 6.422-8.877 3.66-13.66-2.76-4.782-8.874-6.421-13.66-3.66l-32.589 18.814c-1.694-1.533-3.561-2.898-5.582-4.06l-33.626-19.343-18.899-32.857c-1.256-2.326-2.768-4.458-4.491-6.367l18.804-32.57c2.762-4.783 1.123-10.898-3.66-13.66-4.784-2.762-10.9-1.123-13.66 3.66l-18.806 32.573c-2.216-.473-4.502-.719-6.828-.719l-38.765.06-33.29-19.29c-2.123-1.262-4.355-2.263-6.651-3.003v-37.58c-.529-13.268-19.476-13.258-20 0v37.579c-2.175.701-4.293 1.637-6.316 2.809l-33.626 19.486-38.765-.062c-.14-.008-.289.002-.433.009-2.168.029-4.306.276-6.386.725l-18.814-32.588c-7.091-11.226-23.497-1.744-17.32 10l18.815 32.588c-1.533 1.694-2.897 3.561-4.059 5.582l-19.343 33.626-32.86 18.901c-2.325 1.256-4.456 2.768-6.365 4.49l-32.571-18.805c-4.785-2.762-10.9-1.122-13.66 3.66-2.762 4.783-1.123 10.898 3.66 13.66l32.573 18.806c-.473 2.216-.719 4.502-.719 6.827l.062 38.766-19.289 33.286c-1.263 2.124-2.264 4.358-3.005 6.655h-37.581c-13.268.529-13.258 19.476 0 20h37.58c.701 2.175 1.637 4.293 2.809 6.315l19.485 33.627-.062 38.765c0 .146.003.29.009.435.03 2.167.277 4.304.725 6.384l-32.589 18.814c-4.783 2.761-6.422 8.877-3.66 13.66 2.776 4.827 8.962 6.397 13.66 3.66l32.589-18.815c1.694 1.533 3.561 2.898 5.582 4.059l33.624 19.343 18.899 32.855c1.256 2.328 2.769 4.46 4.493 6.37l-18.804 32.57c-2.762 4.783-1.123 10.898 3.66 13.66 4.698 2.737 10.883 1.167 13.66-3.66l18.806-32.573c2.216.473 4.502.719 6.827.719l38.766-.062 33.287 19.289c2.124 1.263 4.357 2.265 6.654 3.005v37.58c.529 13.268 19.476 13.258 20 0v-37.58c2.175-.701 4.293-1.637 6.315-2.809l33.628-19.486 38.764.062c.134.015.291-.002.435-.009 2.167-.03 4.304-.277 6.384-.725l18.815 32.589c2.777 4.827 8.962 6.397 13.66 3.66 4.783-2.762 6.422-8.877 3.66-13.66l-18.815-32.589c1.533-1.694 2.898-3.561 4.059-5.582l19.343-33.625 32.858-18.901c2.326-1.256 4.457-2.767 6.366-4.49l32.572 18.805c4.698 2.737 10.883 1.167 13.66-3.66 2.762-4.783 1.123-10.898-3.66-13.66l-32.574-18.807c.473-2.216.719-4.502.719-6.827l-.061-38.766 19.291-33.29c1.262-2.123 2.263-4.355 3.003-6.651h37.579c13.269-.527 13.259-19.474.001-19.998zm-57.79 16.458c-.022.039-.046.077-.068.116l-20.671 35.673c-.886 1.528-1.351 3.264-1.348 5.029l.064 41.446c0 4.637-2.546 8.874-6.645 11.058-.096.051-.19.104-.284.157l-35.321 20.318c-1.53.881-2.801 2.15-3.682 3.682l-20.689 35.965c-2.224 3.869-6.383 6.275-10.854 6.28-.107 0-.214.002-.319.006l-41.115-.066h-.016c-1.761 0-3.49.465-5.014 1.348l-35.959 20.837c-3.945 2.284-8.827 2.247-12.747-.095-.039-.023-.078-.047-.117-.069l-35.673-20.672c-1.523-.883-3.253-1.348-5.014-1.348h-.016l-41.446.065c-4.637 0-8.873-2.546-11.058-6.646-.051-.095-.104-.189-.157-.283l-20.318-35.322c-.881-1.53-2.15-2.801-3.682-3.682l-35.966-20.689c-3.869-2.224-6.274-6.382-6.279-10.854 0-.107-.002-.214-.006-.32l.065-41.115c.003-1.766-.462-3.501-1.348-5.029l-20.836-35.958c-2.284-3.943-2.247-8.828.096-12.75.023-.038.046-.076.068-.115l20.672-35.672c.886-1.528 1.351-3.264 1.348-5.029l-.065-41.446c0-4.637 2.547-8.874 6.646-11.06.096-.05.189-.103.283-.156l35.321-20.317c1.53-.881 2.801-2.15 3.682-3.682l20.689-35.967c2.224-3.868 6.382-6.274 10.853-6.278.107 0 .214-.002.321-.006l41.115.065h.016c1.761 0 3.49-.465 5.014-1.348l35.956-20.836c3.944-2.283 8.83-2.247 12.749.095.039.023.078.047.117.069l35.673 20.671c1.523.883 3.253 1.348 5.014 1.348h.016l41.446-.064c4.637 0 8.875 2.546 11.059 6.645.051.096.104.19.157.284l20.317 35.321c.881 1.53 2.15 2.801 3.682 3.682l35.966 20.689c3.869 2.224 6.276 6.383 6.28 10.854 0 .097.002.193.005.289l-.065 41.146c-.003 1.766.462 3.501 1.348 5.029l20.837 35.957c2.283 3.944 2.246 8.829-.097 12.75z"/><path d="m468.453 199.009c1.41 5.379 7.057 8.506 12.248 7.07l15.455-4.142c5.334-1.43 8.5-6.913 7.07-12.248-1.43-5.334-6.911-8.502-12.248-7.07l-15.455 4.142c-5.334 1.429-8.5 6.913-7.07 12.248z"/><path d="m418.584 103.312c2.56 0 5.118-.977 7.071-2.929l11.313-11.313c3.905-3.905 3.905-10.237 0-14.143-3.906-3.904-10.236-3.904-14.143 0l-11.313 11.313c-3.905 3.905-3.905 10.237 0 14.143 1.954 1.953 4.512 2.929 7.072 2.929z"/><path d="m312.89 43.443c5.19 1.436 10.837-1.693 12.247-7.071l4.141-15.455c1.43-5.335-1.736-10.818-7.071-12.247-5.338-1.433-10.818 1.736-12.247 7.071l-4.141 15.455c-1.43 5.335 1.736 10.819 7.071 12.247z"/><path d="m156.95 166.954c8.75.096 13.389-10.855 7.075-17.072-3.906-3.904-10.236-3.904-14.143 0l-.006.006c-3.905 3.905-3.902 10.234.003 14.14 1.953 1.95 4.512 2.926 7.071 2.926z"/></g></g></svg>