<svg enable-background="new 0 0 256 256" height="512" viewBox="0 0 256 256" width="512" xmlns="http://www.w3.org/2000/svg"><g id="Layer_84"><g><g><g><path d="m236.79 29.342h-50.609l2.827 2.827c1.174 1.175 1.174 3.079 0 4.253l-6.579 6.579c-.963.963-1.161 2.453-.473 3.628 2.838 4.847 5.041 10.108 6.497 15.674.344 1.315 1.54 2.227 2.9 2.227h9.298c1.661 0 3.008 1.346 3.008 3.007v21.24c0 1.661-1.347 3.008-3.008 3.008h-9.298c-1.36 0-2.555.912-2.9 2.227-1.456 5.566-3.659 10.827-6.497 15.673-.688 1.175-.489 2.666.473 3.629l6.579 6.578c1.174 1.174 1.174 3.079 0 4.254l-15.019 15.019c-1.174 1.174-3.079 1.174-4.253 0l-6.578-6.578c-.963-.962-2.453-1.161-3.628-.474-4.847 2.839-10.108 5.042-15.673 6.497-1.315.344-2.228 1.54-2.228 2.9v9.297c0 1.661-1.347 3.008-3.008 3.008h-21.24c-1.661 0-3.008-1.347-3.008-3.008v-9.297c0-1.36-.912-2.556-2.228-2.9-5.566-1.456-10.827-3.658-15.673-6.497-1.175-.688-2.666-.489-3.628.474l-6.578 6.578c-1.174 1.174-3.079 1.174-4.253 0l-15.019-15.019c-1.175-1.175-1.175-3.08 0-4.254l6.578-6.578c.963-.963 1.161-2.454.473-3.629-2.838-4.846-5.041-10.107-6.497-15.673-.344-1.315-1.54-2.227-2.9-2.227h-9.298c-1.661 0-3.008-1.347-3.008-3.008v-21.24c0-1.661 1.347-3.007 3.008-3.007h9.298c1.36 0 2.555-.912 2.9-2.227 1.456-5.566 3.659-10.827 6.497-15.674.688-1.175.489-2.665-.473-3.628l-6.578-6.579c-1.175-1.174-1.175-3.079 0-4.253l2.827-2.827h-50.611c-7.012 0-12.748 5.736-12.748 12.748v159.354c0 7.012 5.737 12.749 12.748 12.749h217.58c7.011 0 12.748-5.737 12.748-12.749v-159.354c0-7.011-5.737-12.748-12.748-12.748z" fill="#5290db"/></g></g><g><g><path d="m236.79 39.966h-51.325l-3.035 3.035c-.963.963-1.161 2.453-.473 3.628 2.838 4.847 5.041 10.108 6.497 15.674.344 1.315 1.54 2.227 2.9 2.227h9.298c1.661 0 3.008 1.346 3.008 3.007v21.24c0 1.661-1.347 3.008-3.008 3.008h-9.298c-1.36 0-2.555.912-2.9 2.227-1.456 5.566-3.659 10.827-6.497 15.673-.688 1.175-.489 2.666.473 3.629l6.579 6.578c1.174 1.174 1.174 3.079 0 4.254l-15.019 15.019c-1.174 1.174-3.079 1.174-4.253 0l-6.578-6.578c-.963-.962-2.453-1.161-3.628-.474-4.847 2.839-10.108 5.042-15.673 6.497-1.315.344-2.228 1.54-2.228 2.9v9.297c0 1.661-1.347 3.008-3.008 3.008h-21.24c-1.661 0-3.008-1.347-3.008-3.008v-9.297c0-1.36-.912-2.556-2.228-2.9-5.566-1.456-10.827-3.658-15.673-6.497-1.175-.688-2.666-.489-3.628.474l-6.578 6.578c-1.174 1.174-3.079 1.174-4.253 0l-15.019-15.019c-1.175-1.175-1.175-3.08 0-4.254l6.578-6.578c.963-.963 1.161-2.454.473-3.629-2.838-4.846-5.041-10.107-6.497-15.673-.344-1.315-1.54-2.227-2.9-2.227h-9.299c-1.661 0-3.008-1.347-3.008-3.008v-21.24c0-1.661 1.347-3.007 3.008-3.007h9.298c1.36 0 2.555-.912 2.9-2.227 1.456-5.566 3.659-10.827 6.497-15.674.688-1.175.489-2.665-.473-3.628l-3.035-3.035h-51.327c-1.169 0-2.125.956-2.125 2.125v138.107h221.829v-138.108c.001-1.168-.956-2.124-2.124-2.124z" fill="#edf4fc"/></g></g><g><g><path d="m17.086 168.255h221.829v11.942h-221.829z" fill="#5290db"/></g></g><g><g><path d="m17.086 168.255h25.104v11.942h-25.104z" fill="#fcdd86"/></g></g><g><g><g><path d="m200.65 64.53h-9.298c-1.36 0-2.555-.912-2.9-2.227-1.456-5.566-3.659-10.827-6.497-15.674-.688-1.175-.489-2.665.473-3.628l6.579-6.579c1.174-1.174 1.174-3.079 0-4.253l-15.019-15.019c-1.174-1.174-3.079-1.174-4.253 0l-6.578 6.579c-.963.963-2.453 1.161-3.628.473-4.847-2.837-10.108-5.041-15.673-6.497-1.315-.344-2.228-1.539-2.228-2.899v-9.299c0-1.661-1.347-3.007-3.008-3.007h-21.24c-1.661 0-3.008 1.347-3.008 3.007v9.298c0 1.36-.912 2.555-2.228 2.899-5.566 1.456-10.827 3.66-15.673 6.497-1.175.688-2.665.49-3.628-.473l-6.578-6.579c-1.174-1.174-3.079-1.174-4.253 0l-15.02 15.02c-1.175 1.175-1.175 3.079 0 4.253l6.578 6.579c.963.963 1.161 2.453.473 3.628-2.838 4.847-5.041 10.108-6.497 15.674-.344 1.315-1.54 2.227-2.9 2.227h-9.296c-1.661 0-3.008 1.346-3.008 3.007v21.24c0 1.661 1.347 3.008 3.008 3.008h9.298c1.36 0 2.555.912 2.9 2.227 1.456 5.566 3.659 10.827 6.497 15.673.688 1.175.489 2.666-.473 3.629l-6.578 6.578c-1.175 1.174-1.175 3.079 0 4.254l15.019 15.019c1.175 1.174 3.079 1.174 4.253 0l6.578-6.578c.963-.962 2.453-1.161 3.628-.474 4.846 2.839 10.108 5.042 15.673 6.497 1.315.344 2.228 1.54 2.228 2.9v9.297c0 1.661 1.347 3.008 3.008 3.008h21.24c1.661 0 3.008-1.347 3.008-3.008v-9.297c0-1.36.912-2.556 2.228-2.9 5.566-1.456 10.827-3.658 15.673-6.497 1.175-.688 2.666-.489 3.628.474l6.578 6.578c1.175 1.174 3.079 1.174 4.253 0l15.019-15.019c1.174-1.175 1.174-3.08 0-4.254l-6.579-6.578c-.963-.963-1.161-2.454-.473-3.629 2.838-4.846 5.041-10.107 6.497-15.673.344-1.315 1.54-2.227 2.9-2.227h9.298c1.661 0 3.008-1.347 3.008-3.008v-21.24c-.001-1.661-1.348-3.007-3.009-3.007zm-25.038 16.07c-1.792 1.604-4.142 2.608-7.003 3.004-2.734 19.991-19.868 35.396-40.609 35.396-17.585 0-32.579-11.074-38.403-26.626v1.817c0 1.365-1.106 2.471-2.471 2.471h-4.211c-1.365 0-2.471-1.106-2.471-2.471v-32.066c0-1.365 1.106-2.471 2.471-2.471h5.044c.993 0 1.889.594 2.276 1.508l.186.439c6.327-14.478 20.767-24.601 37.579-24.601 15.935 0 29.737 9.098 36.522 22.376h1.159c4.365 0 7.753 1.105 10.069 3.286 2.358 2.221 3.553 5.232 3.553 8.948 0 3.772-1.242 6.797-3.691 8.99z" fill="#f5c84c"/></g></g></g><g><g><path d="m103.862 214.193h48.276v27.365h-48.276z" fill="#c7d7e5"/></g></g><g><g><path d="m6.462 180.197v21.247c0 7.012 5.737 12.748 12.748 12.748h217.58c7.012 0 12.748-5.737 12.748-12.748v-21.247z" fill="#edf4fc"/></g></g><g><g><path d="m115.583 59.654h-5.044c-.998 0-1.899.6-2.282 1.522l-8.934 21.487-9.088-21.501c-.387-.914-1.283-1.509-2.276-1.509h-5.044c-1.365 0-2.471 1.106-2.471 2.471v32.066c0 1.365 1.106 2.471 2.471 2.471h4.211c1.365 0 2.471-1.106 2.471-2.471v-12.75l5.509 13.673c.377.935 1.285 1.547 2.293 1.547h3.748c1.011 0 1.92-.616 2.294-1.554l5.46-13.662v12.745c0 1.365 1.106 2.471 2.471 2.471h4.211c1.365 0 2.471-1.106 2.471-2.471v-32.064c0-1.365-1.106-2.471-2.471-2.471z" fill="#fc657e"/></g></g><g><g><path d="m152.098 60.433c-.462-.662-1.218-1.057-2.026-1.057h-4.581c-1.042 0-1.971.653-2.324 1.632l-7.746 21.463-7.636-21.453c-.35-.986-1.283-1.643-2.328-1.643h-4.627c-.807 0-1.563.394-2.025 1.055-.462.662-.572 1.508-.295 2.266l11.938 32.621c.356.974 1.283 1.622 2.321 1.622h5.321c1.036 0 1.962-.647 2.32-1.619l11.981-32.62c.278-.758.169-1.605-.293-2.267z" fill="#fc657e"/></g></g><g><g><path d="m175.75 62.662c-2.316-2.181-5.704-3.286-10.069-3.286h-10.365c-1.365 0-2.471 1.106-2.471 2.471v32.621c0 1.365 1.106 2.471 2.471 2.471h4.211c1.365 0 2.471-1.106 2.471-2.471v-10.67h3.684c4.218 0 7.56-1.075 9.931-3.198 2.449-2.193 3.691-5.218 3.691-8.99-.001-3.716-1.196-6.727-3.554-8.948zm-13.752 5.173h3.313c1.843 0 3.204.327 3.832.922.227.214.915.864.915 2.853 0 1.284-.304 2.199-.929 2.797 0 0 0 .001-.001.001-.625.6-1.981.931-3.818.931h-3.313v-7.504z" fill="#fc657e"/></g></g><g><g><path d="m236.79 216.693h-217.58c-8.408 0-15.248-6.841-15.248-15.249v-159.354c0-8.408 6.84-15.248 15.248-15.248h50.212c1.381 0 2.5 1.119 2.5 2.5s-1.119 2.5-2.5 2.5h-50.212c-5.65 0-10.248 4.598-10.248 10.248v159.354c0 5.651 4.598 10.249 10.248 10.249h217.58c5.65 0 10.248-4.598 10.248-10.249v-159.354c0-5.65-4.598-10.248-10.248-10.248h-50.071c-1.381 0-2.5-1.119-2.5-2.5s1.119-2.5 2.5-2.5h50.071c8.408 0 15.248 6.84 15.248 15.248v159.354c0 8.409-6.84 15.249-15.248 15.249z"/></g></g><g><g><path d="m238.914 182.325c-1.381 0-2.5-1.119-2.5-2.5v-137.359h-50.414c-1.381 0-2.5-1.119-2.5-2.5s1.119-2.5 2.5-2.5h50.79c2.55 0 4.624 2.074 4.624 4.624v137.735c0 1.381-1.119 2.5-2.5 2.5z"/></g></g><g><g><path d="m17.086 182.081c-1.381 0-2.5-1.119-2.5-2.5v-137.491c0-2.55 2.074-4.624 4.624-4.624h50.932c1.381 0 2.5 1.119 2.5 2.5s-1.119 2.5-2.5 2.5h-50.556v137.115c0 1.381-1.119 2.5-2.5 2.5z"/></g></g><g><g><path d="m171.714 241.558h-87.428c-3.298 0-5.971 2.674-5.971 5.971 0 3.298 2.673 5.971 5.971 5.971h87.428c3.298 0 5.971-2.674 5.971-5.971 0-3.298-2.673-5.971-5.971-5.971z" fill="#edf4fc"/></g></g><g><g><path d="m128 190.907c-3.473 0-6.288 2.815-6.288 6.288 0 3.473 2.815 6.288 6.288 6.288s6.288-2.815 6.288-6.288c0-3.473-2.815-6.288-6.288-6.288z" fill="#c7d7e5"/></g></g><g><g><path d="m171.714 256h-87.428c-4.671 0-8.472-3.8-8.472-8.471s3.801-8.472 8.472-8.472h87.428c4.671 0 8.472 3.801 8.472 8.472s-3.801 8.471-8.472 8.471zm-87.428-11.942c-1.914 0-3.472 1.558-3.472 3.472s1.558 3.47 3.472 3.47h87.428c1.914 0 3.472-1.557 3.472-3.471s-1.558-3.472-3.472-3.472h-87.428z"/></g></g><g><g><path d="m152.138 243.127c-1.381 0-2.5-1.119-2.5-2.5v-25.667c0-1.381 1.119-2.5 2.5-2.5s2.5 1.119 2.5 2.5v25.667c0 1.381-1.119 2.5-2.5 2.5z"/></g></g><g><g><path d="m103.861 243.384c-1.381 0-2.5-1.119-2.5-2.5v-26.042c0-1.381 1.119-2.5 2.5-2.5s2.5 1.119 2.5 2.5v26.042c0 1.381-1.119 2.5-2.5 2.5z"/></g></g><g><g><path d="m219.705 11.654c-4.498-.838-8.043-4.31-8.898-8.716-.043-.221-.352-.221-.395 0-.855 4.406-4.4 7.879-8.898 8.716-.226.042-.226.345 0 .387 4.498.838 8.043 4.31 8.898 8.717.043.221.352.221.395 0 .855-4.406 4.4-7.879 8.898-8.717.226-.043.226-.345 0-.387z" fill="#f5c84c"/></g></g><g><g><path d="m202.903 230.736c-2.586-.482-4.625-2.479-5.116-5.012-.025-.127-.202-.127-.227 0-.492 2.534-2.53 4.531-5.117 5.012-.13.024-.13.198 0 .222 2.586.482 4.625 2.479 5.117 5.012.025.127.202.127.227 0 .492-2.534 2.53-4.531 5.116-5.012.129-.024.129-.198 0-.222z" fill="#87d147"/></g></g><g><g><path d="m61.941 238.487h-2.33v-2.33c0-1.744-1.413-3.157-3.157-3.157s-3.157 1.413-3.157 3.157v2.33h-2.329c-1.744 0-3.157 1.413-3.157 3.157s1.413 3.157 3.157 3.157h2.329v2.33c0 1.744 1.413 3.157 3.157 3.157s3.157-1.413 3.157-3.157v-2.33h2.33c1.744 0 3.157-1.413 3.157-3.157s-1.413-3.157-3.157-3.157z" fill="#70d6f9"/></g></g><g><g><circle cx="32.662" cy="227.377" fill="#fc657e" r="3.377"/></g></g><g><g><circle cx="183.662" cy="3.377" fill="#70d6f9" r="3.377"/></g></g><g><g><path d="m248.875 182.697h-241.733c-1.381 0-2.5-1.119-2.5-2.5s1.119-2.5 2.5-2.5h241.733c1.381 0 2.5 1.119 2.5 2.5s-1.119 2.5-2.5 2.5z"/></g></g><g><g><path d="m128 205.983c-4.846 0-8.788-3.942-8.788-8.788s3.942-8.788 8.788-8.788 8.788 3.942 8.788 8.788-3.942 8.788-8.788 8.788zm0-12.576c-2.089 0-3.788 1.699-3.788 3.788s1.699 3.788 3.788 3.788 3.788-1.699 3.788-3.788-1.699-3.788-3.788-3.788z"/></g></g><g><g><path d="m238.125 170.755h-220.25c-1.381 0-2.5-1.119-2.5-2.5s1.119-2.5 2.5-2.5h220.25c1.381 0 2.5 1.119 2.5 2.5s-1.119 2.5-2.5 2.5z"/></g></g><g><g><path d="m42.19 182.479c-1.381 0-2.5-1.119-2.5-2.5v-11.435c0-1.381 1.119-2.5 2.5-2.5s2.5 1.119 2.5 2.5v11.435c0 1.381-1.119 2.5-2.5 2.5z"/></g></g><g><g><path d="m138.62 156.315h-21.24c-3.037 0-5.508-2.471-5.508-5.508v-9.297c0-.229-.148-.427-.361-.482-5.713-1.494-11.198-3.769-16.303-6.758-.189-.112-.435-.078-.596.083l-6.58 6.579c-1.039 1.04-2.422 1.613-3.895 1.613-1.472 0-2.854-.573-3.895-1.614l-15.019-15.018c-1.041-1.04-1.613-2.424-1.613-3.895s.572-2.854 1.613-3.895l6.579-6.578c.16-.161.194-.407.083-.598-2.99-5.106-5.265-10.592-6.759-16.304-.055-.213-.253-.36-.48-.36h-9.296c-3.037 0-5.508-2.471-5.508-5.508v-21.24c0-3.036 2.471-5.507 5.508-5.507h9.298c.228 0 .426-.147.48-.359 1.495-5.713 3.769-11.199 6.759-16.306.111-.19.077-.437-.084-.598l-6.578-6.578c-1.04-1.039-1.613-2.422-1.613-3.894s.572-2.854 1.613-3.895l15.02-15.02c2.146-2.147 5.641-2.148 7.788 0l6.579 6.579c.161.16.405.196.597.083 5.107-2.99 10.593-5.265 16.304-6.759.213-.055.36-.252.36-.479v-9.294c0-3.037 2.471-5.508 5.508-5.508h21.24c3.037 0 5.508 2.471 5.508 5.508v9.298c0 .228.147.425.359.479 5.712 1.494 11.197 3.769 16.305 6.759.189.11.436.079.596-.082l6.58-6.58c2.146-2.146 5.641-2.147 7.787-.001l15.021 15.021c1.041 1.04 1.613 2.423 1.613 3.895s-.573 2.854-1.614 3.895l-6.578 6.578c-.16.16-.194.406-.083.597 2.99 5.106 5.264 10.593 6.759 16.305.055.213.253.36.48.36h9.298c3.037 0 5.508 2.471 5.508 5.507v21.24c0 3.037-2.471 5.508-5.508 5.508h-9.298c-.228 0-.426.147-.48.359-1.494 5.713-3.769 11.198-6.759 16.305-.111.19-.077.437.084.599l6.578 6.577c1.041 1.04 1.613 2.424 1.613 3.895s-.572 2.854-1.613 3.895l-15.02 15.019c-1.04 1.041-2.423 1.613-3.895 1.613s-2.854-.573-3.895-1.614l-6.578-6.577c-.161-.161-.407-.192-.598-.084-5.104 2.989-10.589 5.264-16.303 6.759-.212.055-.36.253-.36.481v9.297c0 3.034-2.471 5.504-5.508 5.504zm-43.651-27.109c.949 0 1.904.245 2.766.75 4.71 2.759 9.771 4.856 15.043 6.235 2.411.632 4.095 2.819 4.095 5.319v9.297c0 .28.228.508.508.508h21.24c.28 0 .508-.228.508-.508v-9.297c0-2.5 1.684-4.688 4.094-5.318 5.272-1.38 10.334-3.478 15.043-6.236 2.155-1.261 4.892-.906 6.66.864l6.578 6.577c.246.246.472.246.718 0l15.02-15.019c.198-.198.198-.521 0-.719l-6.579-6.578c-1.769-1.77-2.122-4.508-.862-6.66 2.759-4.711 4.857-9.772 6.235-15.042.63-2.41 2.817-4.095 5.318-4.095h9.298c.28 0 .508-.228.508-.508v-21.24c0-.279-.228-.507-.508-.507h-9.298c-2.501 0-4.688-1.685-5.318-4.096-1.379-5.27-3.477-10.33-6.235-15.042-1.261-2.15-.906-4.889.861-6.658l6.58-6.58c.123-.123.148-.263.148-.358s-.025-.236-.148-.359l-15.02-15.02c-.197-.196-.521-.198-.718 0l-6.579 6.579c-1.767 1.771-4.507 2.124-6.659.862-4.712-2.759-9.773-4.857-15.042-6.235-2.41-.63-4.095-2.816-4.095-5.317v-9.297c0-.28-.228-.508-.508-.508h-21.24c-.28 0-.508.228-.508.508v9.298c0 2.501-1.685 4.688-4.096 5.317-5.268 1.378-10.329 3.477-15.041 6.235-2.152 1.262-4.892.907-6.659-.862l-6.579-6.579c-.198-.198-.521-.196-.718 0l-15.02 15.02c-.123.123-.148.264-.148.359s.025.235.147.357l6.58 6.58c1.769 1.771 2.123 4.509.862 6.659-2.759 4.712-4.856 9.772-6.235 15.043-.63 2.41-2.817 4.095-5.318 4.095h-9.298c-.28 0-.508.228-.508.507v21.24c0 .28.228.508.508.508h9.298c2.501 0 4.688 1.685 5.318 4.096 1.378 5.269 3.477 10.33 6.235 15.041 1.26 2.152.906 4.891-.861 6.659l-6.58 6.579c-.198.198-.198.521 0 .719l15.02 15.019c.248.247.474.244.717.001l6.58-6.579c1.059-1.062 2.469-1.614 3.892-1.614z"/></g></g><g><g><path d="m115.583 99.162h-4.211c-2.662 0-4.843-2.104-4.966-4.736l-.644 1.609c-.759 1.899-2.571 3.127-4.616 3.127h-3.748c-2.037 0-3.848-1.222-4.611-3.111l-.692-1.72c-.074 2.677-2.274 4.831-4.969 4.831h-4.211c-2.741 0-4.971-2.23-4.971-4.972v-32.065c0-2.741 2.229-4.972 4.971-4.972h5.044c2 0 3.797 1.19 4.578 3.032l6.768 16.011 6.644-15.98c.774-1.86 2.576-3.063 4.591-3.063h5.044c2.741 0 4.971 2.23 4.971 4.972v32.065c-.001 2.742-2.231 4.972-4.972 4.972zm-6.684-20.216c.156 0 .314.015.474.045 1.177.227 2.027 1.257 2.027 2.455v12.744l4.183-.028-.029-32.009h-5.015l-8.907 21.47c-.387.93-1.294 1.537-2.301 1.54-.003 0-.006 0-.008 0-1.005 0-1.911-.602-2.303-1.526l-9.088-21.501-5.018.018.029 32.037 4.182-.028-.029-12.721c0-1.197.849-2.227 2.024-2.454 1.177-.229 2.348.411 2.795 1.52l5.509 13.673 3.722-.018 5.433-13.644c.385-.963 1.315-1.573 2.32-1.573zm6.684-16.793h.01z"/></g></g><g><g><path d="m138.087 99.439h-5.321c-2.078 0-3.954-1.312-4.668-3.264l-11.938-32.62c-.558-1.521-.336-3.224.592-4.555.932-1.331 2.454-2.125 4.076-2.125h4.627c2.098 0 3.98 1.328 4.684 3.305l5.297 14.882 5.379-14.902c.708-1.964 2.587-3.284 4.676-3.284h4.581c1.625 0 3.149.796 4.078 2.129.927 1.329 1.147 3.031.59 4.554l-11.986 32.624c-.717 1.948-2.592 3.256-4.667 3.256zm-12.659-37.583-4.6.02 11.965 32.582 5.294-.019 11.943-32.563h-4.54l-7.72 21.444c-.357.991-1.299 1.651-2.352 1.651-.002 0-.004 0-.006 0-1.056-.002-1.995-.667-2.35-1.662z"/></g></g><g><g><path d="m159.526 99.439h-4.21c-2.741 0-4.972-2.229-4.972-4.971v-32.62c0-2.741 2.23-4.972 4.972-4.972h10.365c5.023 0 8.988 1.334 11.782 3.966 2.88 2.712 4.34 6.335 4.34 10.769 0 4.514-1.522 8.165-4.524 10.852-2.842 2.546-6.744 3.836-11.598 3.836h-1.184v8.171c.001 2.74-2.229 4.969-4.971 4.969zm-4.21-37.563.028 32.593 4.182-.029-.028-10.642c0-1.381 1.119-2.5 2.5-2.5h3.684c3.585 0 6.365-.861 8.263-2.561 1.924-1.723 2.859-4.054 2.859-7.127 0-3.043-.905-5.375-2.768-7.128-1.836-1.729-4.647-2.606-8.354-2.606zm9.995 15.963h-3.313c-1.381 0-2.5-1.119-2.5-2.5v-7.504c0-1.381 1.119-2.5 2.5-2.5h3.313c2.558 0 4.426.541 5.551 1.606 1.123 1.056 1.696 2.629 1.696 4.669 0 1.976-.572 3.524-1.701 4.604-1.119 1.076-2.987 1.625-5.546 1.625zm-.813-5h.813c1.214 0 1.877-.175 2.107-.273.046-.093.14-.359.14-.955 0-.583-.082-.885-.127-1.006-.245-.1-.913-.27-2.12-.27h-.813z"/></g></g></g></g></svg>